<?xml version="1.0" encoding="utf-8"?>
<!-- Generator: Adobe Illustrator 25.0.1, SVG Export Plug-In . SVG Version: 6.00 Build 0)  -->
<svg version="1.1" xmlns="http://www.w3.org/2000/svg" xmlns:xlink="http://www.w3.org/1999/xlink" x="0px" y="0px"
	 viewBox="0 0 2000 2000" style="enable-background:new 0 0 2000 2000;" xml:space="preserve">
<style type="text/css">
	.st0{display:none;}
	.st1{display:inline;fill:#707070;}
	.st2{display:inline;fill:#FFFFFF;}
	.st3{fill:#FFFFFF;}
</style>
<g id="Camada_2">
	<path d="M1000.1,1999.9L1000.1,1999.9c-552.3,0-1000-447.7-1000-999.9v0C0.1,447.7,447.8,0,1000,0h0
		C1552.3,0,2000,447.7,2000,999.9v0C2000,1552.2,1552.3,1999.9,1000.1,1999.9z"/>
</g>
<g id="Camada_1">
	<g id="Camada_3" class="st0">
		<rect y="0" class="st1" width="2000" height="2000"/>
	</g>
	<g id="Camada_2_1_">
		<g class="st0">
			<path class="st2" d="M1168.7,1277.2c-16.4,0-29.7-13.3-29.7-29.7v-268l-171.7,113.2c-9.1,6-20.9,6.6-30.4,1.3
				c-9.7-5.2-15.6-15.2-15.6-26.1V752.6c0-16.4,13.3-29.7,29.7-29.7c16.4,0,29.7,13.3,29.7,29.7v260.3l171.7-113.3
				c9.1-6,20.9-6.6,30.4-1.3c9.7,5.2,15.6,15.2,15.6,26.1v323.1C1198.4,1263.9,1185,1277.2,1168.7,1277.2z"/>
		</g>
		<g>
			<path class="st3" d="M1004.4,1000c0-8.4-3.6-16.4-9.9-22l-110.1-99.3l74.3-109.6c9.2-13.6,5.7-32-7.9-41.3s-32-5.7-41.3,7.9
				L766.3,947.1L623,735.9c-9.2-13.6-27.7-17.1-41.3-7.9c-13.6,9.2-17.1,27.7-7.9,41.3l74.3,109.6L538.1,978
				c-6.2,5.7-9.9,13.6-9.9,22c0,8.4,3.6,16.4,9.9,22l110.1,99.1l-74.3,109.6c-9.2,13.6-5.7,32,7.9,41.3c5.1,3.4,10.9,5.1,16.6,5.1
				c9.6,0,18.9-4.6,24.6-13.1l143.3-211.2L909.6,1264c5.7,8.4,15.1,13.1,24.6,13.1c5.7,0,11.6-1.7,16.6-5.1
				c13.6-9.2,17.1-27.7,7.9-41.3l-74.4-109.6l110.1-99.3C1000.7,1016.4,1004.4,1008.4,1004.4,1000z M681.9,1071.7l-79.5-71.6
				l79.5-71.6l48.5,71.6L681.9,1071.7z M850.7,1071.7l-48.6-71.6l48.6-71.6l79.5,71.6L850.7,1071.7z"/>
			<path class="st3" d="M1471.7,949.2V752.5c0-11-6-21-15.6-26.1c-9.7-5.2-21.4-4.7-30.5,1.4l-132,87.6l-132.1-87.6
				c-9.1-6.1-20.9-6.6-30.5-1.4c-9.7,5.2-15.6,15.2-15.6,26.1v196.7c0,0,0,0,0,0.1v298.3c0,16.4,13.3,29.7,29.7,29.7
				s29.7-13.3,29.7-29.7V965.4l118.7-78.7l118.7,78.7v282.1c0,16.4,13.3,29.7,29.7,29.7s29.7-13.3,29.7-29.7L1471.7,949.2
				L1471.7,949.2z M1174.6,894.1v-86.3l65.1,43.1L1174.6,894.1z M1347.1,851l65.1-43.1v86.3L1347.1,851z"/>
			<path class="st3" d="M356.8,1471.2h41.8c10.4,0,18.9-8.4,18.9-18.9c0-10.4-8.4-18.9-18.9-18.9h-41.8c-36.4,0-66.2-26.7-66.2-59.6
				v-295.7c0-25.7-10.6-49.9-30-68.3l-10.6-10.1l10.6-10.1c19.4-18.3,30-42.6,30-68.3V625.9c0-32.8,29.7-59.6,66.2-59.6h41.8
				c10.4,0,18.9-8.4,18.9-18.9c0-10.4-8.4-18.9-18.7-18.9h-41.8c-57.2,0-103.8,43.6-103.8,97.1v295.7c0,32.8-29.7,59.6-66.2,59.6
				c-10.4,0-18.9,8.4-18.9,18.9c0,10.3,8.4,18.9,18.9,18.9c36.4,0,66.2,26.7,66.2,59.6V1374C253,1427.7,299.6,1471.2,356.8,1471.2z"
				/>
			<path class="st3" d="M1832,1000c0-10.3-8.4-18.9-18.9-18.9c-36.4,0-66.2-26.7-66.2-59.6V625.9c0-53.6-46.6-97.1-103.8-97.1h-41.8
				c-10.3,0-18.9,8.4-18.9,18.9c0,10.4,8.4,18.9,18.9,18.9h41.8c36.4,0,66.2,26.7,66.2,59.6v295.7c0,25.7,10.6,49.9,30,68.3
				l10.6,10.1l-10.6,10.1c-19.4,18.3-30,42.6-30,68.3v295.7c0,32.8-29.7,59.6-66.2,59.6h-41.8c-10.3,0-18.9,8.4-18.9,18.9
				c0,10.4,8.4,18.9,18.9,18.9h41.8c57.2,0,103.8-43.6,103.8-97.1v-295.7c0-32.8,29.7-59.6,66.2-59.6
				C1823.6,1018.8,1832,1010.3,1832,1000z"/>
		</g>
		<g class="st0">
			<polygon class="st2" points="678.9,1181.8 805.2,1110.4 766.4,1052.9 			"/>
			<polygon class="st2" points="930.4,1000 850.7,928.4 802.2,1000 850.7,1071.7 			"/>
			<polygon class="st2" points="730.4,1000 681.9,928.4 602.4,1000 681.9,1071.7 			"/>
			<polygon class="st2" points="1174.6,894.1 1239.7,851 1174.6,807.8 			"/>
			<path class="st2" d="M766.4,1052.9l38.9,57.4l199-112.7c-0.6-7.6-4.1-14.6-9.7-19.6l-110.2-99.2l74.3-109.6
				c9.2-13.6,5.7-32-7.9-41.3s-32-5.7-41.3,7.9L766.2,947.1L623,735.9c-9.2-13.6-27.7-17.1-41.3-7.9c-13.6,9.2-17.1,27.7-7.9,41.3
				l74.3,109.6L538.1,978c-6.2,5.7-9.9,13.6-9.9,22c0,8.4,3.6,16.4,9.9,22l110.1,99.1l-74.3,109.6c-2.7,4.1-4.4,8.7-4.9,13.3
				l109.9-62.2L766.4,1052.9z M850.7,928.4l79.5,71.6l-79.5,71.6l-48.6-71.6L850.7,928.4z M602.4,1000l79.5-71.6l48.6,71.6
				l-48.6,71.6L602.4,1000z"/>
			<path class="st2" d="M1456,726.4c-9.7-5.2-21.4-4.7-30.5,1.4l-132,87.6l-132.1-87.6c-9.1-6.1-20.9-6.6-30.5-1.4
				c-9.7,5.2-15.6,15.2-15.6,26.1v182.1l351.3-198.9C1463.8,731.9,1460.3,728.7,1456,726.4z M1174.6,894.1v-86.3l65.1,43.1
				L1174.6,894.1z"/>
			<path class="st2" d="M290.6,1374.1v-295.7c0-25.7-10.6-49.9-30-68.3l-10.6-10.1l10.6-10.1c19.4-18.3,30-42.6,30-68.3V625.9
				c0-32.8,29.7-59.6,66.2-59.6h41.8c10.4,0,18.9-8.4,18.9-18.9c0-10.4-8.4-18.9-18.7-18.9H357c-57.2,0-103.8,43.6-103.8,97.1v295.7
				c0,32.8-29.7,59.6-66.2,59.6c-10.4,0-18.9,8.4-18.9,18.9c0,10.3,8.4,18.9,18.9,18.9c36.4,0,66.2,26.7,66.2,59.6V1374
				c0,15.4,3.9,30,10.7,42.9l32.7-18.6C292.7,1391.1,290.6,1382.8,290.6,1374.1z"/>
			<path class="st2" d="M1643.2,528.8h-41.8c-10.3,0-18.9,8.4-18.9,18.9c0,10.4,8.4,18.9,18.9,18.9h41.8c26.8,0,50,14.4,60.3,35.1
				l32.7-18.6C1719.3,551,1683.9,528.8,1643.2,528.8z"/>
			<path class="st2" d="M581.9,1272.1c5.1,3.4,10.9,5.1,16.6,5.1c9.6,0,18.9-4.6,24.6-13.1l55.7-82.3L569,1244.1
				C567.8,1254.8,572.3,1265.7,581.9,1272.1z"/>
			<path class="st2" d="M909.6,1264.1c5.7,8.4,15.1,13.1,24.6,13.1c5.7,0,11.6-1.7,16.6-5.1c13.6-9.2,17.1-27.7,7.9-41.3
				l-74.3-109.6l110.1-99.3c6.2-5.7,9.9-13.6,9.9-22c0-0.7,0-1.7-0.1-2.4l-199.1,112.8L909.6,1264.1z"/>
			<path class="st2" d="M1115.2,949.4v298.1c0,16.4,13.3,29.7,29.7,29.7c16.4,0,29.7-13.3,29.7-29.7V965.4l118.7-78.7l118.7,78.7
				v282.1c0,16.4,13.3,29.7,29.7,29.7s29.7-13.3,29.7-29.7V949.4c0,0,0,0,0-0.1V752.5c0-6.1-1.9-11.9-5.2-16.7l-351,198.9
				L1115.2,949.4C1115.2,949.2,1115.2,949.2,1115.2,949.4z M1412.3,807.8v86.3l-65.1-43.1L1412.3,807.8z"/>
			<path class="st2" d="M417.4,1452.4c0-10.3-8.4-18.9-18.9-18.9h-41.7c-26.8,0-50-14.4-60.4-35.1l-32.7,18.6
				c17,32,52.3,54.2,93.1,54.2h41.8C409,1471.2,417.4,1462.8,417.4,1452.4z"/>
			<path class="st2" d="M1813.1,981.1c-36.4,0-66.2-26.7-66.2-59.6V625.9c0-15.4-3.9-30-10.7-42.9l-32.7,18.6
				c3.7,7.4,5.9,15.7,5.9,24.4v295.7c0,25.7,10.6,49.9,30,68.3l10.6,10.1l-10.6,10.1c-19.4,18.3-30,42.6-30,68.3v295.7
				c0,32.8-29.7,59.6-66.2,59.6h-41.8c-10.3,0-18.9,8.4-18.9,18.9c0,10.4,8.4,18.9,18.9,18.9h41.8c57.2,0,103.8-43.6,103.8-97.1
				v-295.7c0-32.8,29.7-59.6,66.2-59.6c10.3,0,18.9-8.4,18.9-18.9C1832,989.7,1823.6,981.1,1813.1,981.1z"/>
		</g>
		<g class="st0">
			<polygon class="st2" points="802.2,1000 930.4,1000 850.7,928.4 			"/>
			<polygon class="st2" points="1174.6,807.8 1174.6,894.1 1239.7,851 			"/>
			<polygon class="st2" points="602.4,1000 730.4,1000 681.9,928.4 			"/>
			<polygon class="st2" points="1412.3,807.8 1347.1,851 1412.3,894.1 			"/>
			<polygon class="st2" points="1293.5,886.7 1174.6,965.4 1174.6,1000 1412.3,1000 1412.3,965.4 			"/>
			<path class="st2" d="M681.9,928.4l48.5,71.6h71.7l48.6-71.6l79.5,71.6h74c0-8.4-3.6-16.4-9.9-22l-110-99.3l74.3-109.6
				c9.2-13.6,5.7-32-7.9-41.3c-13.6-9.2-32-5.7-41.3,7.9L766.4,947.1L623,735.9c-9.2-13.6-27.7-17.1-41.3-7.9
				c-13.6,9.2-17.1,27.7-7.9,41.3l74.3,109.6L538.1,978c-6.2,5.7-9.9,13.6-9.9,22h74L681.9,928.4z"/>
			<path class="st2" d="M1174.6,965.4l118.7-78.7l118.7,78.7v34.6h59.4v-50.7c0,0,0,0,0-0.1V752.5c0-11-6-21-15.6-26.1
				c-9.7-5.2-21.4-4.7-30.5,1.4l-132,87.6l-132-87.6c-9.1-6.1-20.9-6.6-30.5-1.4c-9.7,5.2-15.6,15.2-15.6,26.1v196.7c0,0,0,0,0,0.1
				v50.7h59.4V965.4z M1412.3,807.8v86.3l-65.1-43.1L1412.3,807.8z M1174.6,807.8l65.1,43.1l-65.1,43.1V807.8z"/>
			<path class="st2" d="M260.6,990c19.4-18.3,30-42.6,30-68.3V625.9c0-32.8,29.7-59.6,66.2-59.6h41.8c10.4,0,18.9-8.4,18.9-18.9
				c0-10.4-8.4-18.9-18.9-18.9h-41.7c-57.2,0-103.8,43.6-103.8,97.1v295.7c0,32.8-29.7,59.6-66.2,59.6c-10.4,0-18.9,8.4-18.9,18.9
				h82L260.6,990z"/>
			<path class="st2" d="M1813.1,981.1c-36.4,0-66.2-26.7-66.2-59.6V625.9c0-53.6-46.6-97.1-103.8-97.1h-41.8
				c-10.3,0-18.9,8.4-18.9,18.9c0,10.4,8.4,18.9,18.9,18.9h41.8c36.4,0,66.2,26.7,66.2,59.6v295.7c0,25.7,10.6,49.9,30,68.3
				l10.6,10.1h82C1832,989.7,1823.6,981.1,1813.1,981.1z"/>
			<path class="st2" d="M1832,1000L1832,1000L1832,1000z"/>
			<path class="st2" d="M168,1000L168,1000L168,1000z"/>
			<path class="st2" d="M538.2,1022.1l110.1,99.1L574,1230.7c-9.2,13.6-5.7,32,7.9,41.3c5.1,3.4,10.9,5.1,16.6,5.1
				c9.6,0,18.9-4.6,24.6-13.1l143.3-211.2L909.7,1264c5.7,8.4,15.1,13.1,24.6,13.1c5.7,0,11.6-1.7,16.6-5.1
				c13.6-9.2,17.1-27.7,7.9-41.3l-74.3-109.6l110.1-99.3c6.2-5.7,9.9-13.6,9.9-22h-74l-79.5,71.6l-48.6-71.6h-71.7l-48.6,71.6
				l-79.5-71.6h-74C528.3,1008.4,531.9,1016.4,538.2,1022.1z"/>
			<path class="st2" d="M1144.9,1277.2c16.4,0,29.7-13.3,29.7-29.7V1000h-59.3v247.4C1115.2,1263.9,1128.5,1277.2,1144.9,1277.2z"/>
			<path class="st2" d="M1412.3,1247.5c0,16.4,13.3,29.7,29.7,29.7s29.7-13.3,29.7-29.7V1000h-59.4V1247.5L1412.3,1247.5z"/>
			<path class="st2" d="M417.4,1452.4c0-10.3-8.4-18.9-18.9-18.9h-41.7c-36.4,0-66.2-26.7-66.2-59.6v-295.7
				c0-25.7-10.6-49.9-30-68.3l-10.6-10.1l0,0h-81.9l0,0c0,10.3,8.4,18.9,18.9,18.9c36.4,0,66.2,26.7,66.2,59.6V1374
				c0,53.6,46.6,97.1,103.8,97.1h41.8C409,1471.2,417.4,1462.8,417.4,1452.4z"/>
			<path class="st2" d="M1750.1,1000L1750.1,1000l-10.6,10.1c-19.4,18.3-30,42.6-30,68.3v295.7c0,32.8-29.7,59.6-66.2,59.6h-41.8
				c-10.3,0-18.9,8.4-18.9,18.9c0,10.4,8.4,18.9,18.9,18.9h41.8c57.2,0,103.8-43.6,103.8-97.1v-295.7c0-32.8,29.7-59.6,66.2-59.6
				c10.3,0,18.9-8.4,18.9-18.9l0,0L1750.1,1000L1750.1,1000z"/>
		</g>
	</g>
</g>
</svg>
